<svg width="40" height="40" xmlns="http://www.w3.org/2000/svg" viewBox="0 0 200 200">
 <g>
  <title>Two Players</title>
  <path stroke-width="0.5" fill="#fff" stroke="#000000" opacity="NaN" d="m96.7007,88.30962l-41.49883,19.75066l-27.89581,92.04133c-0.14687,1.04125 172.3938,0.45709 172.1438,-0.04291c-0.25,-0.5 -36.7497,-99.74918 -36.99887,-99.99835c0.24917,0.24917 -28.12913,-5.25791 -30.09259,-9.04993c0.95631,0.25633 -2.85081,-0.75079 -5.04284,-3.8571c-1.46511,-0.32225 -12.86418,-5.34282 -30.61486,1.15631l0,-0.00001z" id="svg_28"/>
  <path fill="#fff" opacity="NaN" d="m200.40817,202c-7.09722,-18 -13.18056,-95 -39.54167,-102c-26.36111,-7 -28.98774,-8.05882 -33.45833,-13" id="svg_21" stroke="#000"/>
  <line fill="none" stroke="#000" x1="-0.39983" y1="201.36777" x2="171.60308" y2="201.36777" id="svg_24"/>
  <ellipse fill="#fff" stroke="#000" cx="106.21516" cy="48" id="svg_2" rx="43.5" ry="43.5"/>
  <path fill="#fff" stroke="#000000" opacity="NaN" d="m69.75665,88.49845l-41.49883,19.75066l-27.89581,92.04133c-0.14687,1.04125 172.3938,0.45709 172.1438,-0.04291c-0.25,-0.5 -36.7497,-99.74918 -36.99887,-99.99835c0.24917,0.24917 -28.12913,-5.25791 -30.09259,-9.04993c0.95631,0.25633 -2.85081,-0.75079 -5.04284,-3.8571c-1.46511,-0.32225 -12.86418,-5.34282 -30.61486,1.15631l0,-0.00001z" id="svg_4"/>
  <path fill="#fff" opacity="NaN" d="m-0.39983,201.63224c7,-18 13,-95 39,-102c26,-7 28.25,-9.5 29.75,-10.75" id="svg_23" stroke="#000"/>
  <path fill="#fff" opacity="NaN" d="m172.64472,201.63223c-7.09722,-18 -13.18056,-95 -39.54167,-102c-26.36111,-7 -28.98774,-8.05882 -33.45833,-13" id="svg_1" stroke="#000"/>
  <ellipse fill="#fff" stroke="#000" cx="84.60017" cy="47.86777" id="svg_3" rx="43.5" ry="43.5"/>
 </g>
</svg>