<svg width="40" height="40" xmlns="http://www.w3.org/2000/svg" viewBox="0 0 200 200">
  <g>
    <title>Single Play</title>
    <path
      id="svg_28"
      d="m83.6342,88.49845l-41.49883,19.75066l-27.89581,92.04133c-0.14687,1.04125 172.3938,0.45709 172.1438,-0.04291c-0.25,-0.5 -36.7497,-99.74918 -36.99887,-99.99835c0.24917,0.24917 -28.12913,-5.25791 -30.09259,-9.04993c0.95631,0.25633 -2.85081,-0.75079 -5.04284,-3.8571c-1.46511,-0.32225 -12.86418,-5.34282 -30.61486,1.15631l0,-0.00001z"
      opacity="NaN"
      stroke="#000000"
      fill="#fff"
    />
    <path
      stroke="#000"
      id="svg_21"
      d="m186.52227,201.63223c-7.09722,-18 -13.18056,-95 -39.54167,-102c-26.36111,-7 -28.98774,-8.05882 -33.45833,-13"
      opacity="NaN"
      fill="#fff"
    />
    <g id="svg_25">
      <ellipse
        ry="43.5"
        rx="43.5"
        id="svg_2"
        cy="47.86777"
        cx="98.47772"
        stroke="#000"
        fill="#fff"
      />
      <path
        stroke="#000"
        id="svg_23"
        d="m13.47772,201.63224c7,-18 13,-95 39,-102c26,-7 28.25,-9.5 29.75,-10.75"
        opacity="NaN"
        fill="#fff"
      />
      <line
        id="svg_24"
        y2="201.36777"
        x2="185.48063"
        y1="201.36777"
        x1="13.47772"
        stroke="#000"
        fill="none"
      />
    </g>
  </g>
</svg>